HIERARCHY
ROOT root
{
	OFFSET 0.000000 0.000000 0.000000
	CHANNELS 6 Xposition Yposition Zposition Zrotation Yrotation Xrotation
	JOINT lhip
	{
		OFFSET 0.058581 -0.082280 -0.017664
		CHANNELS 3 Zrotation Yrotation Xrotation
		JOINT lknee
		{
			OFFSET 0.043451 -0.386469 0.008037
			CHANNELS 3 Zrotation Yrotation Xrotation
			JOINT lankle
			{
				OFFSET -0.014790 -0.426874 -0.037428
				CHANNELS 3 Zrotation Yrotation Xrotation
				JOINT ltoe
				{
					OFFSET 0.041054 -0.060286 0.122042
					CHANNELS 3 Zrotation Yrotation Xrotation
					End Site
					{
						OFFSET 0.000000 0.000000 0.000000
					}
				}
			}
		}
	}
	JOINT rhip
	{
		OFFSET -0.060310 -0.090513 -0.013543
		CHANNELS 3 Zrotation Yrotation Xrotation
		JOINT rknee
		{
			OFFSET -0.043257 -0.383688 -0.004843
			CHANNELS 3 Zrotation Yrotation Xrotation
			JOINT rankle
			{
				OFFSET 0.019056 -0.420046 -0.034562
				CHANNELS 3 Zrotation Yrotation Xrotation
				JOINT rtoe
				{
					OFFSET -0.034840 -0.062106 0.130323
					CHANNELS 3 Zrotation Yrotation Xrotation
					End Site
					{
						OFFSET 0.000000 0.000000 0.000000
					}
				}
			}
		}
	}
	JOINT lowerback
	{
		OFFSET 0.004439 0.124404 -0.038385
		CHANNELS 3 Zrotation Yrotation Xrotation
		JOINT upperback
		{
			OFFSET 0.004488 0.137956 0.026820
			CHANNELS 3 Zrotation Yrotation Xrotation
			JOINT chest
			{
				OFFSET -0.002265 0.056032 0.002855
				CHANNELS 3 Zrotation Yrotation Xrotation
				JOINT lowerneck
				{
					OFFSET -0.013390 0.211636 -0.033468
					CHANNELS 3 Zrotation Yrotation Xrotation
					JOINT upperneck
					{
						OFFSET 0.010113 0.088937 0.050410
						CHANNELS 3 Zrotation Yrotation Xrotation
						End Site
						{
							OFFSET 0.000000 0.000000 0.000000
						}
					}
				}
				JOINT lclavicle
				{
					OFFSET 0.071702 0.114000 -0.018898
					CHANNELS 3 Zrotation Yrotation Xrotation
					JOINT lshoulder
					{
						OFFSET 0.122921 0.045205 -0.019046
						CHANNELS 3 Zrotation Yrotation Xrotation
						JOINT lelbow
						{
							OFFSET 0.255332 -0.015649 -0.022946
							CHANNELS 3 Zrotation Yrotation Xrotation
							JOINT lwrist
							{
								OFFSET 0.265709 0.012698 -0.007375
								CHANNELS 3 Zrotation Yrotation Xrotation
								End Site
								{
									OFFSET 0.000000 0.000000 0.000000
								}
							}
						}
					}
				}
				JOINT rclavicle
				{
					OFFSET -0.082954 0.112472 -0.023707
					CHANNELS 3 Zrotation Yrotation Xrotation
					JOINT rshoulder
					{
						OFFSET -0.113228 0.046853 -0.008472
						CHANNELS 3 Zrotation Yrotation Xrotation
						JOINT relbow
						{
							OFFSET -0.260127 -0.014369 -0.031269
							CHANNELS 3 Zrotation Yrotation Xrotation
							JOINT rwrist
							{
								OFFSET -0.269108 0.006794 -0.006027
								CHANNELS 3 Zrotation Yrotation Xrotation
								End Site
								{
									OFFSET 0.000000 0.000000 0.000000
								}
							}
						}
					}
				}
			}
		}
	}
}
MOTION
Frames: 16
Frame Time: 0.033333
0.053293 0.236487 1.001961 90.196345 1.594964 88.237035 4.009304 2.099049 2.745588 0.346213 -6.317503 -0.166319 -0.873268 7.521901 -3.513824 0.000000 -0.000000 0.000000 -1.856492 -3.577512 3.742766 -2.182012 1.275793 -1.015304 4.344211 -4.519943 -2.846653 0.000000 -0.000000 0.000000 1.182428 2.468962 4.840689 -0.593661 -2.006507 1.492132 0.473836 -0.720541 -3.903977 0.062730 -7.318876 -4.217257 6.268680 -4.214417 -0.460608 -23.304956 -5.267865 6.118525 -59.742879 -6.759521 13.016560 6.121007 -21.310456 19.425718 -18.550170 -5.252523 -1.230940 17.304705 8.099188 3.899755 64.180876 2.098896 13.023009 -4.849727 20.163549 5.000580 31.828601 6.625350 -21.770459 
0.052692 0.236442 1.001969 89.828230 1.613302 88.244659 4.018013 2.139871 2.729108 0.331022 -6.126274 -0.118617 -0.747371 7.653129 -3.517228 0.000000 -0.000000 0.000000 -1.846866 -3.610072 3.521361 -2.191186 1.639402 -0.821071 4.407752 -4.459838 -2.872569 0.000000 -0.000000 0.000000 1.242558 2.529986 4.786217 -0.628615 -1.928852 1.596056 0.461234 -0.604031 -3.905195 -0.040187 -7.375130 -4.096641 6.307611 -4.134170 -0.568153 -23.392567 -5.558972 6.100416 -59.465807 -6.702123 13.111736 5.638269 -21.428585 19.744726 -18.237910 -5.129508 -0.958678 17.364800 8.748190 4.036862 64.109583 1.839521 13.486253 -4.585361 20.699237 4.867082 31.015037 6.625679 -21.398481 
0.051955 0.236700 1.002039 89.776168 1.514104 88.273304 3.918761 2.447755 2.528709 0.280585 -6.210147 0.068839 -0.797542 7.522162 -3.469214 0.000000 -0.000000 0.000000 -2.017427 -3.640497 3.407637 -2.113676 1.598625 -0.789494 4.381510 -4.349586 -2.859986 0.000000 -0.000000 0.000000 1.166131 2.370418 4.835421 -0.666549 -1.881252 1.585509 0.472521 -0.589697 -3.946534 -0.076796 -7.352595 -4.009443 6.291959 -4.022814 -0.650360 -23.487519 -5.555305 6.035147 -59.370553 -6.686115 13.173715 5.542474 -21.592459 19.995257 -18.422553 -4.973395 -1.153030 17.422134 8.863770 4.019588 64.062300 1.815541 13.902976 -3.971159 21.229086 5.960320 31.359713 6.511016 -21.179363 
0.051495 0.236839 1.002022 89.724497 1.475348 88.260447 3.853999 2.400544 2.478387 0.271267 -6.142896 0.156086 -0.798416 7.561110 -3.497041 0.000000 -0.000000 0.000000 -2.081297 -3.645744 3.387580 -2.106162 1.587777 -0.814284 4.332517 -4.274528 -2.801899 0.000000 -0.000000 0.000000 1.095796 2.374415 4.769408 -0.629444 -1.920284 1.724692 0.506953 -0.582903 -3.888775 -0.110428 -7.270568 -4.080278 6.225596 -4.018404 -0.703357 -23.605760 -5.584402 5.970490 -59.300514 -6.667975 13.222365 5.539295 -21.830938 19.912876 -18.760967 -4.732770 -0.882736 17.598857 8.949484 4.016079 63.883789 1.893454 14.329162 -3.450761 21.738714 7.474660 32.431690 6.046235 -20.387288 
0.051174 0.236921 1.001960 89.734017 1.466452 88.265116 3.836845 2.333147 2.456760 0.259209 -6.124442 0.154619 -0.756864 7.565548 -3.526574 0.000000 -0.000000 0.000000 -2.090554 -3.634486 3.286419 -2.105639 1.622905 -0.658057 4.304968 -4.315712 -2.842488 0.000000 -0.000000 0.000000 1.070627 2.381350 4.663820 -0.562770 -1.950211 1.873951 0.473474 -0.569693 -3.896163 -0.100261 -7.093329 -4.064848 6.095378 -4.133769 -0.701391 -23.710814 -5.594606 6.017484 -59.196328 -6.726671 13.234323 5.474803 -22.052850 20.220604 -19.265601 -4.704241 -0.977953 17.818437 8.931959 4.092028 63.785902 2.194453 14.459131 -3.575567 21.800218 8.343803 32.767424 5.550970 -19.438688 
0.051035 0.237067 1.001891 89.855642 1.467330 88.222709 3.819637 2.289526 2.456530 0.285782 -6.119772 0.178674 -0.891479 7.534323 -3.502599 0.000000 -0.000000 0.000000 -2.109516 -3.612965 3.330573 -2.095307 1.437474 -0.613189 4.347479 -4.288679 -2.819207 0.000000 -0.000000 0.000000 1.019864 2.365123 4.634964 -0.502288 -2.031010 1.910323 0.503990 -0.625206 -3.842412 -0.060864 -6.941380 -4.093703 5.951359 -4.213053 -0.660780 -23.746660 -5.600927 6.003175 -59.237837 -6.728215 13.391510 5.341129 -22.004334 20.410776 -19.163821 -4.797883 -0.561847 18.004939 8.877789 4.097666 63.415992 2.585119 14.365730 -3.509074 21.550410 8.531898 32.727492 5.406230 -19.120193 
0.050681 0.237142 1.001846 90.016758 1.455861 88.259565 3.808138 2.255670 2.325625 0.254586 -6.137239 0.249877 -0.927308 7.448616 -3.501903 0.000000 -0.000000 0.000000 -2.117939 -3.627660 3.273730 -2.095445 1.394665 -0.581838 4.373267 -4.359546 -2.836236 0.000000 -0.000000 0.000000 0.918319 2.345181 4.569834 -0.448694 -2.097510 1.950040 0.577154 -0.706070 -3.872692 -0.042673 -6.874287 -4.089752 5.879476 -4.262363 -0.569775 -23.772717 -5.758414 6.144198 -59.273606 -6.700795 13.611235 5.233276 -22.042531 20.395328 -19.222407 -5.133245 -0.324341 18.144843 9.025091 4.127858 62.867516 2.934288 14.380465 -3.127182 21.402963 8.794920 32.995687 5.314401 -19.080042 
0.050350 0.237271 1.001886 90.119891 1.452171 88.283927 3.799060 2.227618 2.214797 0.242588 -6.166013 0.347569 -0.989190 7.394779 -3.481776 0.000000 -0.000000 0.000000 -2.137363 -3.663401 3.204313 -2.070823 1.403904 -0.496600 4.348029 -4.412349 -2.897122 0.000000 -0.000000 0.000000 0.870875 2.384246 4.442677 -0.422058 -2.072509 2.116374 0.613947 -0.707747 -3.913136 -0.091425 -6.910052 -4.081085 5.863030 -4.387157 -0.509884 -23.820397 -6.025594 6.248589 -59.240772 -6.768180 13.761143 5.149997 -21.907038 20.563646 -19.529171 -5.386181 -0.127478 18.299928 9.367631 4.281139 62.204929 3.172570 14.508692 -2.706659 21.679251 9.497733 33.324187 5.277124 -18.722273 
0.050128 0.237419 1.001953 90.210084 1.475842 88.212637 3.796510 2.190926 2.248866 0.262145 -6.197542 0.399868 -1.001241 7.379171 -3.538892 0.000000 -0.000000 0.000000 -2.125159 -3.601962 3.276594 -2.069709 1.239826 -0.463171 4.344782 -4.399057 -2.888181 0.000000 -0.000000 0.000000 0.853844 2.368532 4.378019 -0.397346 -2.088785 2.368046 0.640843 -0.609765 -3.971171 -0.075824 -6.955652 -4.120911 5.806341 -4.547527 -0.595380 -23.998719 -6.311699 6.312538 -58.965946 -6.692760 13.834285 5.065822 -22.063189 20.557094 -19.806714 -5.384703 0.155960 18.499019 9.728045 4.573532 61.377832 3.531459 14.484525 -2.165045 22.624364 10.197383 33.554647 5.543396 -18.765114 
0.049435 0.237610 1.002047 90.204332 1.475070 88.172983 3.783079 2.039990 2.196316 0.234721 -6.113138 0.520076 -0.959479 7.446642 -3.531031 0.000000 -0.000000 0.000000 -2.126812 -3.544668 3.195181 -2.055982 1.333366 -0.292241 4.266357 -4.576877 -3.004641 0.000000 -0.000000 0.000000 0.813011 2.492415 4.268166 -0.368594 -2.047715 2.759122 0.652470 -0.515709 -4.017958 -0.048279 -7.127245 -4.206501 5.846052 -4.748289 -0.801433 -24.120259 -6.732945 6.381918 -58.421121 -6.603441 13.865490 4.585996 -22.977866 20.645219 -19.834897 -5.115980 -0.205913 18.691905 10.260599 4.985134 60.174664 3.562435 14.907363 -1.352321 25.956821 11.380923 32.741619 5.612108 -18.675222 
0.048462 0.237469 1.002393 90.187922 1.480301 88.221252 3.793610 1.919448 1.935129 0.176700 -6.038029 0.879498 -0.941718 7.561781 -3.604306 0.000000 -0.000000 0.000000 -2.110623 -3.581027 3.020004 -2.036852 1.619140 -0.139792 4.094471 -4.801064 -3.096190 0.000000 -0.000000 0.000000 0.773738 2.604874 4.081545 -0.358745 -2.096334 3.001714 0.646238 -0.626253 -3.912264 0.143419 -7.121054 -4.223475 5.800293 -4.741357 -1.095718 -24.071646 -7.035584 6.514285 -57.246453 -6.481170 13.895574 2.993869 -25.598030 22.189217 -19.945929 -4.801148 -0.209490 18.298015 10.587654 4.823240 58.911388 3.678491 16.094007 0.796151 32.201652 15.606708 31.580792 6.045778 -17.830583 
0.047077 0.237219 1.002892 89.904705 1.456250 88.129316 3.776393 1.817767 1.825502 0.111554 -5.812062 1.248261 -1.044572 7.785326 -3.780021 0.000000 -0.000000 0.000000 -2.111076 -3.405001 2.938426 -2.062101 1.742045 -0.005100 4.274290 -4.799993 -3.107105 0.000000 -0.000000 0.000000 0.833801 2.740282 4.082225 -0.445038 -2.165892 3.086208 0.435660 -0.655574 -3.655777 0.567802 -6.725206 -4.228813 5.659119 -4.992346 -1.204025 -23.951828 -7.573520 6.466410 -55.265656 -6.740828 14.427833 0.096133 -29.251500 24.594147 -18.590761 -5.851628 0.935261 17.579285 10.822677 4.118600 57.446267 4.601384 17.717555 5.519693 40.358302 22.124636 29.546428 7.988327 -18.988668 
0.044635 0.237351 1.003390 90.095424 1.347047 88.175191 3.599993 1.675359 1.220031 0.086480 -5.775720 2.010293 -1.047126 7.540170 -3.884399 0.000000 -0.000000 0.000000 -2.263907 -3.394568 2.688379 -1.956283 1.724555 0.155770 4.415073 -4.857093 -3.081918 0.000000 -0.000000 0.000000 0.721101 2.769704 4.007785 -0.401544 -2.547631 3.117042 0.296576 -0.706255 -3.394847 0.801836 -6.322957 -4.096988 5.416122 -5.381473 -1.257076 -23.663513 -8.842536 6.075799 -53.251295 -7.542888 15.453315 -3.217285 -33.537163 27.499770 -17.022590 -6.737573 1.860627 16.821890 11.660117 3.202660 55.145154 6.274843 19.733638 13.784245 51.065214 32.056199 27.368091 10.370837 -20.661706 
0.042552 0.237108 1.004240 90.303686 1.231734 88.296699 3.468405 1.396955 0.693307 0.073939 -5.432096 2.573301 -1.089925 7.308518 -4.110955 0.000000 -0.000000 0.000000 -2.428680 -3.450089 2.516848 -1.851405 1.696905 0.133468 4.577370 -4.882774 -2.904918 0.000000 -0.000000 0.000000 0.495906 3.030615 3.483690 -0.273396 -3.079053 3.377300 0.236009 -0.928745 -3.170337 1.047771 -5.812383 -3.644327 4.891593 -5.797141 -1.064205 -23.135402 -10.801024 5.484379 -51.182994 -8.562307 16.854526 -6.956866 -38.700176 30.828240 -14.477386 -7.025235 3.777117 16.119647 13.366726 2.184224 52.446050 9.170723 21.858105 27.812384 62.410687 46.505286 23.904556 12.835651 -22.868434 
0.038619 0.236492 1.005308 89.892217 1.196185 88.319996 3.486373 1.801964 0.267125 0.073501 -4.895642 3.114063 -1.121675 6.772162 -4.368731 0.000000 -0.000000 0.000000 -2.168050 -2.997456 2.036844 -2.154347 1.490689 0.505107 4.576431 -4.460985 -3.039959 0.000000 -0.000000 0.000000 0.199378 2.935172 3.790616 -0.014973 -3.021595 3.234772 0.237764 -0.750704 -3.467325 1.523843 -5.059182 -3.208970 3.935653 -6.408962 -0.359906 -22.553318 -12.940566 4.450241 -49.218610 -10.306256 18.196007 -11.948221 -43.919548 35.702467 -12.607941 -8.299380 5.512573 15.367387 15.740736 0.790977 50.217560 13.549995 23.936551 52.181068 71.855736 71.853385 19.029259 15.044581 -23.017016 
0.035639 0.237301 1.005512 90.217842 1.020050 88.409842 3.250016 1.174780 -0.242794 0.150958 -4.189137 3.599260 -1.097702 6.322518 -4.518346 0.000000 -0.000000 0.000000 -2.413851 -3.043720 1.743719 -2.073522 1.379504 0.714840 4.960752 -4.365917 -2.879889 0.000000 -0.000000 0.000000 0.071564 3.294012 3.724466 0.195945 -3.667088 3.045319 -0.046099 -0.814175 -3.420423 2.226900 -4.160754 -2.695061 3.016531 -7.424910 0.579383 -21.151045 -15.420124 3.513989 -46.979346 -12.578740 19.925397 -19.827682 -50.760909 43.769547 -9.910796 -10.125944 7.018973 14.133410 18.635576 -0.828139 48.397170 19.314132 25.645549 92.489016 75.967447 112.694298 13.517336 16.230385 -22.963588 
